<svg width="188" height="40" viewBox="0 0 188 40" fill="none" xmlns="http://www.w3.org/2000/svg">
<g clip-path="url(#clip0_5693_95)">
<path d="M6.60131 38.6406C6.60131 38.8344 6.56174 39.0094 6.48565 39.1625C6.40957 39.3156 6.30305 39.4406 6.17218 39.5438C6.04131 39.6469 5.88609 39.725 5.70957 39.7781C5.53305 39.8313 5.34739 39.8563 5.14957 39.8563C4.86044 39.8563 4.5987 39.8219 4.36435 39.75C4.13 39.6781 3.91696 39.5438 3.72522 39.3469L4.31565 38.7406C4.41305 38.8406 4.54087 38.9125 4.69609 38.9531C4.85131 38.9938 5.00348 39.0125 5.15565 39.0125C5.51479 39.0125 5.69435 38.8969 5.69435 38.6656C5.69435 38.5688 5.67 38.4938 5.62131 38.4375C5.56957 38.3844 5.48435 38.35 5.37478 38.3344L4.92131 38.2687C4.58652 38.2188 4.33696 38.1031 4.16652 37.9281C3.99305 37.7469 3.90783 37.4906 3.90783 37.1531C3.90783 36.975 3.93826 36.8125 4.00218 36.6656C4.06609 36.5188 4.15435 36.3906 4.27305 36.2812C4.39174 36.1719 4.53478 36.0875 4.70218 36.0281C4.86957 35.9656 5.06131 35.9375 5.27739 35.9375C5.54826 35.9375 5.78565 35.9719 5.99261 36.0437C6.19957 36.1125 6.38218 36.2313 6.54348 36.3969L5.96218 36.9906C5.90131 36.9281 5.84044 36.8844 5.77348 36.8531C5.70652 36.8219 5.64261 36.8 5.5787 36.7844C5.51478 36.7687 5.45696 36.7625 5.39913 36.7625H5.25C5.16783 36.7625 5.10087 36.775 5.04305 36.7937C4.98522 36.8125 4.93957 36.8438 4.90305 36.8781C4.86652 36.9125 4.83913 36.95 4.82087 36.9906C4.80261 37.0313 4.79348 37.075 4.79348 37.1187C4.79348 37.1437 4.79957 37.1719 4.8087 37.2062C4.81783 37.2375 4.83913 37.2687 4.86652 37.2969C4.89087 37.3219 4.92435 37.3469 4.96392 37.3688C5.00348 37.3906 5.05826 37.4063 5.12522 37.4125L5.5787 37.4781C5.90739 37.525 6.15392 37.6312 6.31522 37.7969C6.41565 37.8969 6.4887 38.0188 6.53131 38.1594C6.57392 38.3 6.59522 38.4625 6.59522 38.6406H6.60131Z" fill="#898989"/>
<path d="M13.1448 39.0406C13.0687 39.2125 12.9652 39.3594 12.8374 39.4781C12.7065 39.6 12.5574 39.6906 12.3839 39.7563C12.2104 39.8219 12.0278 39.8531 11.83 39.8531C11.6322 39.8531 11.4526 39.8219 11.2822 39.7563C11.1087 39.6906 10.9596 39.6 10.8287 39.4781C10.6978 39.3563 10.5974 39.2125 10.5244 39.0406C10.4513 38.8688 10.4148 38.6781 10.4148 38.4688V35.9688H11.337V38.4469C11.337 38.6281 11.3796 38.7656 11.4678 38.8625C11.5561 38.9594 11.6778 39.0094 11.8331 39.0094C11.9883 39.0094 12.11 38.9594 12.2013 38.8625C12.2926 38.7656 12.3383 38.625 12.3383 38.4469V35.9688H13.2604V38.4688C13.2604 38.6781 13.2239 38.8688 13.1478 39.0406H13.1448Z" fill="#898989"/>
<path d="M19.8008 39.8219V37.975L19.2682 38.9281H18.6778L18.1452 37.975V39.8219H17.223V35.9688H18.13L18.973 37.6688L19.8161 35.9688H20.723V39.8219H19.8008Z" fill="#898989"/>
<path d="M24.7526 39.8219V35.9688H25.6748V39.8219H24.7526Z" fill="#898989"/>
<path d="M31.7952 39.8219L30.9309 38.2406L30.6143 38.6156V39.8219H29.7013V35.9688H30.6143V37.3344L31.7009 35.9688H32.83L31.5487 37.5281L32.8726 39.825H31.7983L31.7952 39.8219Z" fill="#898989"/>
<path d="M38.6187 39.8219L38.4452 39.2469H37.2917L37.1061 39.8219H36.1413L37.5078 35.9688H38.22L39.5865 39.8219H38.6217H38.6187ZM37.8852 37.4281L37.5474 38.4563H38.2017L37.8852 37.4281Z" fill="#898989"/>
<path d="M43.0104 39.8219V39.0844L44.45 36.8094H43.0743V35.9656H45.5578V36.7031L44.1122 38.9781H45.5578V39.8219H43.0104Z" fill="#898989"/>
<path d="M49.3622 39.8219V35.9688H51.9126V36.8125H50.2844V37.4563H51.6752V38.3H50.2844V38.9781H51.9126V39.8219H49.3622Z" fill="#898989"/>
<path d="M26.25 9.35938V9.87813C26.25 10.2063 26.037 10.4531 25.5561 10.4531C24.57 10.4531 23.0513 9.6875 21.3987 8.5375C21.3196 8.92188 20.787 9.1125 19.8526 9.1125H12.4174C11.6443 9.1125 11.1665 9.00313 10.8987 8.8125C9.30087 10.1813 7.75478 11.1125 6.68652 11.1125C6.20565 11.1125 6.04739 10.8375 6.04739 10.5375C6.02 9.8 5.96826 9.41562 5.38087 8.04688C5.30174 16.6125 4.18174 21.7563 3.57 23.4531C3.59739 23.5906 3.70391 23.8625 3.70391 24.0281C3.70391 24.9312 3.32957 25.6156 2.29174 25.6156C1.41217 25.6156 0.398696 24.7125 0.398696 23.2344C0.398696 22.3031 0.611739 21.6187 1.30565 20.7156L1.91739 21.1531C2.93087 20.2219 4.10261 15.9531 4.66261 11.0281C4.5287 11.3844 4.18174 11.6562 3.59739 11.6562C2.79696 11.6562 2.26435 10.3438 0.426087 9.575L0 9.52187C0.133913 8.80937 0.267826 8.4 0.426087 8.15312C1.57348 5.525 3.06478 3.5 3.06478 3.09063C3.06478 2.9 1.62522 1.75 0.906957 1.75H0.614783C1.01348 0.0281249 1.30565 0 1.94478 0C2.87609 0 6.28783 1.8875 6.28783 3.36563C6.28783 4.02187 6.04739 4.4875 5.35652 4.51562C5.38391 5.55625 5.38391 6.54063 5.38391 7.5C5.99565 8.62187 6.26348 8.75938 6.34261 8.75938C7.03652 8.75938 8.34217 7.9375 9.75435 6.7625L8.18087 5.09375C8.04696 5.0125 7.8887 4.98438 7.75478 4.90312C7.14304 4.54688 6.90261 4.10938 6.90261 3.725C6.90261 3.31562 7.3013 2.9875 8.02261 2.9875C8.50348 2.9875 9.08783 3.125 9.83652 3.45312L9.70261 4.02813L11.1148 5.53437C12.1283 4.57812 13.0596 3.50938 13.7809 2.525H10.5548C9.17 2.525 8.85044 2.25 8.85044 1.92188C8.85044 1.20938 9.80913 0.690625 10.8743 0.115625L11.1422 0.609375H15.8322L15.9935 0.14375C17.6735 0.5 18.3917 1.40313 18.3917 2.19688C18.3917 2.44375 18.1787 2.69062 17.9657 2.85313C18.2335 3.15313 18.5257 3.45625 18.8178 3.75625C19.6974 2.93438 20.23 2.225 20.3639 1.84062L19.8587 1.375C20.3122 0.85625 20.9513 0.6375 21.6696 0.6375C22.6283 0.6375 23.1365 1.13125 23.1365 1.70625C23.1365 2.17188 22.7896 2.44375 22.3361 2.6375C21.9374 3.10312 20.8965 4.19688 20.0961 4.88125C20.5222 5.26562 21.003 5.61875 21.4565 5.95C22.257 5.18438 22.7896 4.52813 22.8961 4.14375L22.3635 3.70625C22.8444 3.15937 23.4835 2.9125 24.1774 2.9125C25.1361 2.9125 25.6961 3.4875 25.6961 4.00625C25.6961 4.5 25.3217 4.77187 24.8713 4.9375C24.497 5.34688 23.6722 6.25 22.8991 6.93438C24.153 7.72813 25.27 8.22188 25.8057 8.22188C25.9122 8.22188 26.0187 8.14062 26.0978 8.00313H26.4174C26.2835 8.46875 26.2561 8.95938 26.2561 9.37187L26.25 9.35938ZM5.03696 4.4875C4.74478 4.35 4.2913 3.85938 4.13 3.85938C3.64913 3.85938 2.45 4.7625 0.879565 7.88125C0.958696 7.88125 1.06522 7.85312 1.17174 7.85312C1.94478 7.85312 4.58348 9.4125 4.71739 10.5906C4.90304 8.75625 5.03696 6.84063 5.03696 5.00938V4.49062V4.4875ZM24.7861 25.5312C24.4665 25.5312 23.8791 25.3125 23.4804 25.1219H7.08826C6.66217 25.3406 6.07478 25.5312 5.75522 25.5312C4.76913 25.5312 4.5287 25.0125 4.5287 24.4094C4.5287 23.8625 5.30174 23.0406 7.00609 22.3281L7.40478 22.9844H16.4652C17.7191 22.0813 19.5026 20.6031 20.3578 19.6469L19.4265 19.1531C17.5091 19.5906 13.8843 20.575 12.4448 21.2062C12.4722 21.2594 12.4722 21.3438 12.4722 21.3969C12.4722 22.1906 11.833 22.6281 11.1117 22.6281C9.88522 22.6281 9.7513 20.4937 8.6587 19.5094L8.20522 19.3188C8.68609 18.6625 9.08478 18.1969 9.88522 18.1969C10.6857 18.1969 11.2457 18.7719 12.2317 20.55C13.6165 20.1406 19.6152 18.5531 20.3335 18.0594C23.6904 19.1281 24.0374 19.4563 24.0374 19.7844C24.0374 20.1406 23.3709 20.3313 22.3057 20.6063C21.6939 21.2344 20.4126 22.1375 19.2409 22.9875H23.1578L23.5839 22.3312C25.1817 22.9594 25.9304 23.8375 25.9304 24.4125C25.9304 25.15 25.5317 25.5344 24.783 25.5344L24.7861 25.5312ZM22.4944 17.8687C22.333 17.8687 22.12 17.8125 21.7487 17.5938H9.67522C9.32826 17.8125 9.06348 17.8687 8.90217 17.8687C8.18391 17.8687 7.41087 17.075 7.41087 16.1188C7.41087 15.8188 7.6513 15.6 7.83696 15.4344V13.2719C7.6513 13.0813 7.49 12.7531 7.49 12.5344C7.49 11.7406 8.26304 11.0562 9.46217 10.4L9.67522 10.8938H21.2952L21.4809 10.4C23.4257 10.975 23.9857 11.6844 23.9857 12.5625C23.9857 12.8625 23.8 13.0813 23.587 13.275V15.4094C23.8 15.575 24.013 15.8187 24.013 16.1469C24.013 17.1313 23.1609 17.8719 22.4944 17.8719V17.8687ZM21.4291 12.9437H9.97044V15.5438H21.4291V12.9437ZM15.887 3.50312C15.1139 4.51562 14.207 5.58438 13.2209 6.62188L13.4339 7.0875H18.8178L19.0309 6.67813C17.9109 5.66563 16.8183 4.57188 15.887 3.50312Z" fill="#898989"/>
<path d="M35.3013 6.58438C38.7404 6.58438 43.5095 6.06563 45.6156 5.62813L44.9765 4.80626L46.6017 4.39688C48.7595 6.34063 49.2404 6.94063 49.2404 7.29688C49.2404 7.59688 48.9726 7.87188 48.3335 7.87188C47.9591 7.87188 47.3748 7.68126 47.0004 7.48751C45.853 7.73438 44.3891 7.95313 42.8156 8.11563V9.97813H45.5061L45.6917 9.48438C47.5574 10.0594 48.1174 10.6875 48.1174 11.5094C48.1174 11.7563 47.9561 11.975 47.7187 12.1375V16.5719C47.9317 16.7094 48.1448 16.9 48.1448 17.2C48.1448 18.1313 47.32 18.8406 46.6778 18.8406C46.5165 18.8406 46.3035 18.7875 45.9321 18.5656H42.8126V22.2594C43.9843 22.0938 45.0769 21.9313 45.9321 21.7656C45.7465 21.3281 45.5578 20.8344 45.3204 20.2875L44.8152 19.6313C45.7221 19.3563 46.3065 19.1938 46.7082 19.1938C47.1891 19.2469 47.3748 19.4688 47.5604 19.9313C48.7078 22.9688 49.2404 23.8156 49.5874 23.8156C49.6665 23.8156 49.7487 23.7594 49.8278 23.6781H50.1474C50.0408 24.1438 50.0408 24.4719 50.0408 24.7188V25.1844C50.0408 25.8688 49.6148 26.3344 48.9482 26.3344C48.2817 26.3344 47.8282 25.9781 46.7904 23.7625C44.7391 24.2281 38.3965 25.1031 36.2356 25.35C35.9161 26.1156 35.6482 26.5531 35.3561 26.5531C34.9026 26.5531 34.6621 26.1438 33.6517 22.3938L34.9574 21.5719L35.703 23.0781H35.8095C36.5552 23.0781 38.5821 22.8313 40.74 22.5594V18.5625H37.5413C37.1669 18.7531 36.9539 18.8094 36.7956 18.8094C36.1291 18.8094 35.3561 18.0719 35.3561 17.1688C35.3561 16.8688 35.5691 16.7031 35.7548 16.5406V12.1625C35.5691 11.9719 35.4352 11.6969 35.4352 11.4781C35.4352 10.7406 36.2082 10.0813 37.3282 9.48126L37.5413 9.97501H40.74V8.33438C38.7404 8.50001 36.823 8.58126 35.5965 8.58126C35.1156 8.58126 34.7961 8.50001 34.7961 7.92501C34.7961 7.81563 34.8235 7.62501 34.8235 7.37813M54.0248 26.8625C51.6265 26.8625 50.5613 24.1813 50.5339 3.76563H33.5848C31.9321 3.76563 31.5578 3.46563 31.5578 3.05313C31.5578 2.28751 32.4648 1.57501 34.3821 0.890631L34.7017 1.49376H49.84L50.2935 0.865631C52.4513 1.41251 53.3308 2.31563 53.3308 3.24688C53.3308 3.54688 53.063 3.87501 52.7435 4.09688C52.7435 5.76563 52.7435 7.29688 52.7708 8.69376C53.8361 12.4688 55.8874 20.8156 55.8874 23.6063C55.8874 25.9313 55.1691 26.8625 54.0217 26.8625H54.0248ZM41.2848 12.0313H38.4056V16.4906H41.2848V12.0313ZM46.1604 12.0313H43.3635V16.4906H46.1604V12.0313ZM52.7708 9.73126C52.9565 21.7438 53.6778 23.7156 54.1313 23.7156C54.4782 23.7156 54.7187 23.0031 54.7187 21.8C54.7187 19.7469 54.1313 16 52.7739 9.73126H52.7708Z" fill="#898989"/>
<path d="M33.8252 6.60938C35.4779 17.2 29.7805 30.7719 19.0309 33.325C18.1209 33.5406 17.6218 33.0156 17.357 31.8406C16.4805 27.9469 17.7252 24.7313 30.7726 17.8094C31.8683 14.1781 32.0874 10.1656 31.2139 6.3L30.2065 5.62813L31.4635 3.925C31.4635 3.925 33.4265 4.05313 33.8252 6.60625V6.60938ZM18.4405 29.9844C18.5135 30.3031 18.7113 30.4531 19.0492 30.375C24.4757 29.0844 28.6696 24.2688 30.5992 18.3906C19.6487 24.3063 17.8835 27.5094 18.4405 29.9875V29.9844Z" fill="#898989"/>
</g>
<g clip-path="url(#clip1_5693_95)">
<path d="M66.7928 24.3857H69.1627L73.2004 31.0312V24.3857H75.4203V35.1939H73.2124L69.0127 28.3315V35.1939H66.7928V24.3857Z" fill="black"/>
<path d="M78.627 28.1052C78.2311 28.1052 77.8531 28.0184 77.5111 27.8634V35.1908H79.749V27.8603C79.407 28.0153 79.029 28.1021 78.63 28.1021L78.627 28.1052Z" fill="black"/>
<path d="M78.6271 26.6546C79.3975 26.6546 80.022 26.0093 80.022 25.2133C80.022 24.4173 79.3975 23.772 78.6271 23.772C77.8567 23.772 77.2322 24.4173 77.2322 25.2133C77.2322 26.0093 77.8567 26.6546 78.6271 26.6546Z" fill="black"/>
<path d="M85.8206 28.1052V26.2485H83.9757V24.3857H81.7949V31.8371C81.7949 33.9076 83.1418 35.1939 85.3076 35.1939H85.8176V33.3342H85.4996C84.3177 33.3342 83.9727 32.6275 83.9727 31.8743V28.1052H85.8176H85.8206Z" fill="black"/>
<path d="M91.5952 26.2486C93.4281 26.2486 94.523 27.3241 94.523 28.939V29.0444C94.523 30.6344 93.4011 31.741 91.5982 31.741H89.7203V31.8836C89.7203 32.6368 90.0653 33.3342 91.2473 33.3342H93.8841V35.1939H91.0523C88.8864 35.1939 87.5395 33.92 87.5395 31.8495V26.2486H91.5952ZM91.3462 29.8813C92.0962 29.8813 92.3452 29.3016 92.3452 29.0537V28.9266C92.3452 28.6383 92.0962 28.1021 91.3462 28.1021H89.7203V29.8813H91.3462Z" fill="black"/>
<path d="M98.4678 35.1939H96.2869V26.2486H99.1337C101.894 26.2486 102.308 28.6042 102.308 29.8813H100.127C100.127 28.2602 99.4097 28.1052 98.9898 28.1052H98.4678V35.1939Z" fill="black"/>
<path d="M105.625 35.1939H103.444V26.2486H106.291C109.051 26.2486 109.465 28.6042 109.465 29.8813H107.284C107.284 28.2602 106.567 28.1052 106.147 28.1052H105.625V35.1939Z" fill="black"/>
<path d="M112.906 35.1939C111.073 35.1939 109.978 34.1184 109.978 32.5035V32.3981C109.978 30.808 111.1 29.7015 112.903 29.7015H114.781V29.5589C114.781 28.8057 114.436 28.1083 113.254 28.1083H110.617V26.2486H113.449C115.615 26.2486 116.962 27.5225 116.962 29.593V35.1939H112.906ZM113.155 31.5612C112.405 31.5612 112.156 32.1408 112.156 32.3888V32.5159C112.156 32.8041 112.405 33.3404 113.155 33.3404H114.781V31.5612H113.155Z" fill="black"/>
<path d="M129.834 27.6898V35.1009C129.834 35.1505 129.792 35.1939 129.747 35.1939H122.634C122.586 35.1939 122.547 35.1536 122.547 35.1009V26.3415C122.547 26.2919 122.586 26.2516 122.634 26.2516H128.457C129.372 26.2516 129.837 26.7352 129.837 27.6929L129.834 27.6898ZM128.34 27.2156H123.57C123.522 27.2156 123.483 27.2559 123.483 27.3086V30.1633C123.483 30.2129 123.522 30.2563 123.57 30.2563H128.811C128.859 30.2563 128.898 30.216 128.898 30.1633V27.8231C128.898 27.4078 128.73 27.2187 128.34 27.2187V27.2156ZM128.808 34.2238C128.856 34.2238 128.895 34.1835 128.895 34.1339V31.3102C128.895 31.2606 128.856 31.2172 128.808 31.2172H123.567C123.519 31.2172 123.48 31.2575 123.48 31.3102V34.1339C123.48 34.1835 123.519 34.2238 123.567 34.2238H128.808Z" fill="black"/>
<path d="M141.245 34.3818L138.146 28.5484C138.122 28.505 138.146 28.4678 138.191 28.4678H140.855C140.903 28.4678 140.945 28.4276 140.945 28.378V27.5938C140.945 27.5442 140.906 27.5008 140.855 27.5008H137.069C137.021 27.5008 136.982 27.4605 136.982 27.4109V26.106C136.982 26.0564 136.94 26.0161 136.892 26.0161H136.133C136.085 26.0161 136.046 26.0564 136.046 26.106V27.4109C136.046 27.4605 136.007 27.5008 135.956 27.5008H132.171C132.123 27.5008 132.084 27.5411 132.084 27.5938V28.378C132.084 28.4276 132.123 28.4678 132.171 28.4678H134.837C134.885 28.4678 134.903 28.505 134.882 28.5484L131.784 34.3818C131.76 34.4252 131.784 34.4624 131.829 34.4624H132.72C132.768 34.4624 132.828 34.4252 132.849 34.3818L135.947 28.5484C135.971 28.505 136.001 28.4678 136.016 28.4678C136.031 28.4678 136.043 28.5081 136.043 28.5577V33.0304C136.043 33.08 136.004 33.1234 135.953 33.1234H134.603C134.555 33.1234 134.516 33.1637 134.516 33.2164V34.0006C134.516 34.0502 134.555 34.0905 134.603 34.0905H135.953C136.001 34.0905 136.043 34.1308 136.043 34.1835V35.3861C136.043 35.4357 136.082 35.476 136.13 35.476H136.889C136.937 35.476 136.979 35.4357 136.979 35.3861V34.1835C136.979 34.1339 137.018 34.0905 137.066 34.0905H138.419C138.467 34.0905 138.506 34.0502 138.506 34.0006V33.2164C138.506 33.1668 138.467 33.1234 138.419 33.1234H137.066C137.018 33.1234 136.979 33.0831 136.979 33.0304V28.5577C136.979 28.5081 136.991 28.4678 137.006 28.4678C137.021 28.4678 137.051 28.505 137.075 28.5484L140.174 34.3818C140.198 34.4252 140.255 34.4624 140.306 34.4624H141.197C141.245 34.4624 141.266 34.4252 141.242 34.3818H141.245Z" fill="black"/>
<path d="M151.906 32.4477C151.954 32.4477 151.996 32.4074 151.996 32.3547V31.5705C151.996 31.5209 151.957 31.4806 151.906 31.4806H151.159C151.111 31.4806 151.072 31.4403 151.072 31.3907V30.8731C151.072 30.8235 151.033 30.7801 150.982 30.7801H150.223C150.175 30.7801 150.136 30.8204 150.136 30.8731V31.3907C150.136 31.4403 150.097 31.4806 150.046 31.4806H147.299C147.251 31.4806 147.209 31.5209 147.209 31.5705V32.3547C147.209 32.4043 147.248 32.4477 147.299 32.4477H150.046C150.094 32.4477 150.136 32.488 150.136 32.5407V34.4128C150.136 34.4624 150.097 34.5027 150.046 34.5027H149.521C149.473 34.5027 149.431 34.543 149.431 34.5957V35.2869C149.431 35.3365 149.47 35.3768 149.521 35.3768H150.982C151.03 35.3768 151.072 35.3365 151.072 35.2869V32.5407C151.072 32.4911 151.111 32.4477 151.159 32.4477H151.906Z" fill="black"/>
<path d="M147.929 33.1327C147.881 33.1327 147.827 33.173 147.809 33.2195L147.23 34.8344C147.212 34.8809 147.239 34.9212 147.287 34.9212H148.109C148.157 34.9212 148.211 34.884 148.226 34.8344L148.805 33.2195C148.823 33.173 148.796 33.1327 148.748 33.1327H147.926H147.929Z" fill="black"/>
<path d="M146.603 28.9266C146.651 28.9266 146.693 28.8832 146.693 28.8336V28.0494C146.693 27.9998 146.654 27.9595 146.603 27.9595H145.883C145.835 27.9595 145.796 27.9192 145.796 27.8696V26.106C145.796 26.0564 145.754 26.0161 145.709 26.0161H144.95C144.902 26.0161 144.863 26.0564 144.863 26.106V27.8696C144.863 27.9192 144.824 27.9595 144.776 27.9595H144.182C144.134 27.9595 144.098 27.9192 144.104 27.8696L144.293 26.1153C144.296 26.0657 144.263 26.0254 144.212 26.0254H143.447C143.399 26.0254 143.354 26.0657 143.348 26.1153L142.853 30.7429C142.847 30.7925 142.883 30.8328 142.931 30.8328H143.696C143.744 30.8328 143.789 30.7925 143.792 30.7429L143.978 29.0165C143.984 28.9669 144.026 28.9266 144.074 28.9266H144.773C144.821 28.9266 144.86 28.9669 144.86 29.0165V31.9921C144.86 32.0417 144.827 32.1036 144.782 32.1284L142.985 33.1916C142.943 33.2164 142.907 33.2784 142.907 33.328V34.2609C142.907 34.3105 142.94 34.3322 142.985 34.3074L144.782 33.2443C144.824 33.2195 144.86 33.2412 144.86 33.2908V35.3861C144.86 35.4357 144.902 35.476 144.947 35.476H145.706C145.754 35.476 145.793 35.4357 145.793 35.3861V32.7391C145.793 32.6895 145.826 32.6275 145.871 32.6027L146.603 32.1687C146.645 32.1439 146.681 32.0819 146.681 32.0324V31.0994C146.681 31.0498 146.648 31.0281 146.603 31.0529L145.871 31.4868C145.829 31.5116 145.793 31.4899 145.793 31.4403V29.0165C145.793 28.9669 145.832 28.9266 145.88 28.9266H146.6H146.603Z" fill="black"/>
<path d="M151.867 28.0122C151.915 28.0122 151.954 27.9719 151.954 27.9223V27.1381C151.954 27.0885 151.915 27.0482 151.867 27.0482H150.274C150.226 27.0482 150.184 27.0079 150.184 26.9584V26.1091C150.184 26.0595 150.145 26.0192 150.097 26.0192H149.339C149.291 26.0192 149.249 26.0595 149.249 26.1091V26.9584C149.249 27.0079 149.21 27.0482 149.162 27.0482H147.35C147.302 27.0482 147.263 27.0885 147.263 27.1381V27.9223C147.263 27.9719 147.302 28.0122 147.35 28.0122H149.162C149.21 28.0122 149.249 28.0556 149.249 28.1052V29.2396C149.249 29.2892 149.21 29.3295 149.162 29.3295H147.35C147.302 29.3295 147.263 29.3698 147.263 29.4225V30.2067C147.263 30.2563 147.302 30.2966 147.35 30.2966H151.867C151.915 30.2966 151.954 30.2563 151.954 30.2067V29.4225C151.954 29.3729 151.915 29.3295 151.867 29.3295H150.274C150.226 29.3295 150.184 29.2892 150.184 29.2396V28.1052C150.184 28.0556 150.223 28.0122 150.274 28.0122H151.867Z" fill="black"/>
<path d="M156.685 28.8057H155.503C155.455 28.8057 155.425 28.7654 155.44 28.7189L155.92 27.0668C155.935 27.0172 155.986 26.9801 156.034 26.9801H157.357C157.405 26.9801 157.444 26.9398 157.444 26.8902V26.106C157.444 26.0564 157.402 26.0161 157.357 26.0161H153.985C153.937 26.0161 153.895 26.0564 153.895 26.106V26.8902C153.895 26.9398 153.934 26.9801 153.985 26.9801H154.882C154.93 26.9801 154.96 27.0203 154.945 27.0668L153.916 30.6282C153.901 30.6747 153.931 30.715 153.979 30.715H154.78C154.828 30.715 154.879 30.6747 154.894 30.6282L155.116 29.8627C155.131 29.8162 155.182 29.7759 155.23 29.7759H156.202C156.295 29.7759 156.406 29.8224 156.343 30.0145L155.908 31.5178C155.893 31.5674 155.842 31.6046 155.794 31.6046H154.408C154.36 31.6046 154.309 31.6449 154.294 31.6914L154.063 32.4849C154.048 32.5345 154.078 32.5717 154.126 32.5717H155.512C155.56 32.5717 155.59 32.612 155.575 32.6585L155.137 34.1773C155.122 34.2269 155.071 34.264 155.023 34.264H154.822C154.774 34.264 154.723 34.3043 154.708 34.3508L154.48 35.1443C154.465 35.1939 154.495 35.2311 154.543 35.2311H155.722C155.77 35.2311 155.821 35.1908 155.836 35.1443L157.372 29.8967C157.543 29.252 157.177 28.8088 156.691 28.8088L156.685 28.8057Z" fill="black"/>
<path d="M162.778 30.2439C162.826 30.2439 162.865 30.2036 162.865 30.154V29.3698C162.865 29.3202 162.826 29.2799 162.778 29.2799H161.038C160.99 29.2799 160.948 29.2396 160.948 29.1869V28.2137C160.948 28.1641 160.99 28.1207 161.038 28.1207H162.778C162.826 28.1207 162.865 28.0804 162.865 28.0277V27.2435C162.865 27.1939 162.826 27.1536 162.778 27.1536H161.038C160.99 27.1536 160.948 27.1133 160.948 27.0606V26.106C160.948 26.0564 160.909 26.0161 160.861 26.0161H160.102C160.054 26.0161 160.012 26.0564 160.012 26.106V27.0606C160.012 27.1102 159.973 27.1536 159.925 27.1536H159.181C159.133 27.1536 159.103 27.1133 159.115 27.0637L159.358 26.0998C159.37 26.0502 159.34 26.013 159.292 26.013H158.5C158.452 26.013 158.401 26.0533 158.389 26.0998L157.738 28.6631C157.726 28.7127 157.756 28.7499 157.804 28.7499H158.596C158.644 28.7499 158.695 28.7096 158.707 28.6631L158.824 28.2075C158.836 28.1579 158.887 28.1207 158.935 28.1207H159.925C159.973 28.1207 160.012 28.161 160.012 28.2137V29.1869C160.012 29.2365 159.973 29.2799 159.925 29.2799H158.311C158.263 29.2799 158.224 29.3202 158.224 29.3698V30.154C158.224 30.2036 158.263 30.2439 158.311 30.2439H158.983C159.031 30.2439 159.061 30.2842 159.049 30.3338L157.927 34.7662C157.915 34.8158 157.945 34.8561 157.993 34.8561H158.785C158.833 34.8561 158.884 34.8158 158.896 34.7662L160.015 30.3524V35.3892C160.015 35.4388 160.054 35.4791 160.105 35.4791H160.864C160.912 35.4791 160.951 35.4388 160.951 35.3892V30.3679L162.067 34.7662C162.079 34.8158 162.13 34.8561 162.178 34.8561H162.97C163.018 34.8561 163.048 34.8158 163.036 34.7662L161.911 30.3338C161.899 30.2842 161.929 30.2439 161.977 30.2439H162.781H162.778Z" fill="black"/>
<path d="M167.763 27.2776V29.2055C167.763 29.8038 167.652 30.03 167.52 30.2191C167.676 30.3927 167.763 30.7026 167.763 30.9971V34.3043C167.763 34.3539 167.724 34.3942 167.673 34.3942H166.119C166.071 34.3942 166.032 34.4345 166.032 34.4841V35.3985C166.032 35.4481 165.99 35.4915 165.945 35.4915H165.186C165.138 35.4915 165.099 35.4512 165.099 35.3985V26.1153C165.099 26.0657 165.138 26.0223 165.186 26.0223H166.56C167.118 26.0223 167.763 26.2578 167.763 27.2745V27.2776ZM166.827 29.2055V27.2776C166.827 27.0668 166.725 26.9924 166.56 26.9924H166.122C166.074 26.9924 166.035 27.0327 166.035 27.0823V29.655C166.035 29.7046 166.074 29.748 166.122 29.748H166.419C166.656 29.748 166.83 29.5465 166.83 29.2055H166.827ZM166.416 30.715H166.119C166.071 30.715 166.032 30.7553 166.032 30.808V33.3404C166.032 33.39 166.071 33.4334 166.119 33.4334H166.734C166.782 33.4334 166.824 33.3931 166.824 33.3404V31.242C166.824 30.7987 166.659 30.7181 166.413 30.7181L166.416 30.715Z" fill="black"/>
<path d="M172.647 26.6143H169.635C169.587 26.6143 169.557 26.574 169.572 26.5275L169.704 26.0967C169.719 26.0471 169.692 26.0099 169.641 26.0099H168.837C168.789 26.0099 168.735 26.0502 168.723 26.0967L168.183 27.8696C168.168 27.9192 168.195 27.9564 168.246 27.9564H169.05C169.098 27.9564 169.152 27.9161 169.167 27.8696L169.227 27.6682C169.242 27.6217 169.293 27.5814 169.341 27.5814H172.428C172.803 27.5814 172.98 27.7704 172.98 28.1455V34.3415C172.98 34.3911 172.938 34.4314 172.89 34.4314H172.539C172.491 34.4314 172.449 34.4717 172.449 34.5244V35.2559C172.449 35.3055 172.488 35.3458 172.539 35.3458H173.826C173.874 35.3458 173.913 35.3055 173.913 35.2559V27.8479C173.913 27.0172 173.469 26.6143 172.647 26.6143Z" fill="black"/>
<path d="M172.164 32.6182C172.164 32.5686 172.122 32.5283 172.074 32.5283H171.396C171.348 32.5283 171.309 32.5686 171.309 32.6182V33.3218C171.309 33.3714 171.27 33.4117 171.222 33.4117H170.853C170.805 33.4117 170.766 33.3714 170.766 33.3218V31.8526C170.766 31.803 170.805 31.7627 170.853 31.7627H172.089C172.137 31.7627 172.176 31.7224 172.176 31.6728V30.8886C172.176 30.839 172.137 30.7987 172.089 30.7987H170.853C170.805 30.7987 170.766 30.7584 170.766 30.7088V29.8843C170.766 29.8348 170.805 29.7914 170.853 29.7914H172.089C172.137 29.7914 172.176 29.7511 172.176 29.6984V28.9142C172.176 28.8646 172.137 28.8243 172.089 28.8243H169.662C169.614 28.8243 169.584 28.784 169.599 28.7375L169.707 28.3625C169.719 28.3129 169.692 28.2757 169.644 28.2757H168.843C168.795 28.2757 168.744 28.316 168.729 28.3625L168.192 30.2439C168.177 30.2935 168.207 30.3307 168.255 30.3307H169.053C169.101 30.3307 169.152 30.2904 169.167 30.2439L169.272 29.8812C169.287 29.8348 169.335 29.7945 169.386 29.7945H169.74C169.788 29.7945 169.827 29.8348 169.827 29.8874V30.7119C169.827 30.7615 169.788 30.8018 169.74 30.8018H168.522C168.474 30.8018 168.435 30.8421 168.435 30.8917V31.6759C168.435 31.7255 168.474 31.7658 168.522 31.7658H169.74C169.788 31.7658 169.827 31.8061 169.827 31.8557V33.3249C169.827 33.3745 169.788 33.4148 169.74 33.4148H169.374C169.326 33.4148 169.287 33.3745 169.287 33.3249V32.6213C169.287 32.5717 169.248 32.5314 169.2 32.5314H168.522C168.474 32.5314 168.435 32.5717 168.435 32.6213V34.2919C168.435 34.3415 168.474 34.3849 168.522 34.3849H172.077C172.125 34.3849 172.167 34.3446 172.167 34.2919V32.6213L172.164 32.6182Z" fill="black"/>
<path d="M185.12 28.409C185.168 28.409 185.21 28.3687 185.21 28.316V27.5318C185.21 27.4822 185.171 27.4419 185.12 27.4419H184.175C184.127 27.4419 184.109 27.4078 184.136 27.3675L184.985 26.0998C185.012 26.0595 184.994 26.0254 184.946 26.0254H183.986C183.938 26.0254 183.875 26.0595 183.848 26.0998L182.999 27.3675C182.972 27.4078 182.909 27.4419 182.861 27.4419H182.126C182.078 27.4419 182.039 27.4016 182.039 27.352V26.106C182.039 26.0564 182 26.0161 181.952 26.0161H181.193C181.145 26.0161 181.106 26.0564 181.106 26.106V27.352C181.106 27.4016 181.067 27.4419 181.019 27.4419H180.186C180.138 27.4419 180.099 27.4016 180.099 27.352V26.106C180.099 26.0564 180.06 26.0161 180.012 26.0161H179.253C179.205 26.0161 179.163 26.0564 179.163 26.106V27.352C179.163 27.4016 179.124 27.4419 179.076 27.4419H178.341C178.293 27.4419 178.23 27.4078 178.203 27.3675L177.357 26.0998C177.33 26.0595 177.267 26.0254 177.219 26.0254H176.256C176.208 26.0254 176.19 26.0595 176.217 26.0998L177.066 27.3675C177.093 27.4078 177.075 27.4419 177.027 27.4419H176.088C176.04 27.4419 176.001 27.4822 176.001 27.5318V28.316C176.001 28.3656 176.04 28.409 176.088 28.409H178.194C178.242 28.409 178.281 28.4492 178.281 28.4988V29.1745C178.281 29.2241 178.242 29.2644 178.194 29.2644H176.595C176.547 29.2644 176.508 29.3078 176.508 29.3574V30.1416C176.508 30.1912 176.547 30.2315 176.595 30.2315H180.054C180.102 30.2315 180.141 30.2718 180.141 30.3214V30.8514C180.141 30.901 180.102 30.9413 180.054 30.9413H176.595C176.547 30.9413 176.508 30.9816 176.508 31.0312V31.8154C176.508 31.865 176.547 31.9084 176.595 31.9084H180.054C180.102 31.9084 180.141 31.9487 180.141 31.9983V32.4725C180.141 32.5221 180.102 32.5655 180.054 32.5655H176.595C176.547 32.5655 176.508 32.6058 176.508 32.6554V33.4396C176.508 33.4892 176.547 33.5325 176.595 33.5325H177.744C177.792 33.5325 177.804 33.5635 177.771 33.5976L176.163 35.29C176.13 35.3272 176.142 35.3551 176.19 35.3551H177.327C177.375 35.3551 177.444 35.3241 177.477 35.29L179.085 33.5976C179.118 33.5604 179.187 33.5325 179.235 33.5325H180.054C180.102 33.5325 180.141 33.5728 180.141 33.6255V35.3799C180.141 35.4295 180.18 35.4698 180.231 35.4698H180.989C181.037 35.4698 181.076 35.4295 181.076 35.3799V33.6255C181.076 33.5759 181.115 33.5325 181.166 33.5325H181.979C182.027 33.5325 182.096 33.5635 182.129 33.5976L183.737 35.29C183.77 35.3272 183.839 35.3551 183.887 35.3551H185.021C185.069 35.3551 185.081 35.3241 185.048 35.29L183.44 33.5976C183.407 33.5604 183.419 33.5325 183.467 33.5325H184.619C184.667 33.5325 184.709 33.4923 184.709 33.4396V32.6554C184.709 32.6058 184.67 32.5655 184.619 32.5655H181.16C181.112 32.5655 181.07 32.5252 181.07 32.4725V31.9983C181.07 31.9487 181.109 31.9084 181.16 31.9084H184.619C184.667 31.9084 184.709 31.8681 184.709 31.8154V31.0312C184.709 30.9816 184.67 30.9413 184.619 30.9413H181.16C181.112 30.9413 181.07 30.901 181.07 30.8514V30.3214C181.07 30.2718 181.109 30.2315 181.16 30.2315H184.619C184.667 30.2315 184.709 30.1912 184.709 30.1416V29.3574C184.709 29.3078 184.67 29.2644 184.619 29.2644H183.017C182.969 29.2644 182.927 29.2241 182.927 29.1745V28.4988C182.927 28.4492 182.966 28.409 183.017 28.409H185.126H185.12ZM181.985 29.1776C181.985 29.2272 181.946 29.2675 181.898 29.2675H179.295C179.247 29.2675 179.208 29.2272 179.208 29.1776V28.5019C179.208 28.4523 179.247 28.4121 179.295 28.4121H181.898C181.946 28.4121 181.985 28.4523 181.985 28.5019V29.1776Z" fill="black"/>
</g>
<path d="M67.212 13.5V4.704H69.72C70.376 4.704 70.952 4.788 71.448 4.956C71.944 5.116 72.328 5.384 72.6 5.76C72.872 6.136 73.008 6.644 73.008 7.284C73.008 7.9 72.872 8.408 72.6 8.808C72.328 9.208 71.948 9.508 71.46 9.708C70.972 9.9 70.408 9.996 69.768 9.996H68.316V13.5H67.212ZM68.316 9.096H69.624C70.392 9.096 70.964 8.952 71.34 8.664C71.716 8.376 71.904 7.916 71.904 7.284C71.904 6.644 71.708 6.204 71.316 5.964C70.932 5.724 70.352 5.604 69.576 5.604H68.316V9.096ZM74.6978 13.5V6.984H75.5978L75.7058 8.172H75.7298C75.9538 7.756 76.2258 7.428 76.5458 7.188C76.8738 6.94 77.2178 6.816 77.5778 6.816C77.7298 6.816 77.8578 6.828 77.9618 6.852C78.0738 6.868 78.1778 6.904 78.2738 6.96L78.0698 7.908C77.9578 7.876 77.8578 7.852 77.7698 7.836C77.6818 7.812 77.5698 7.8 77.4338 7.8C77.1698 7.8 76.8858 7.916 76.5818 8.148C76.2778 8.372 76.0178 8.76 75.8018 9.312V13.5H74.6978ZM81.718 13.656C81.19 13.656 80.694 13.524 80.23 13.26C79.766 12.988 79.394 12.6 79.114 12.096C78.842 11.584 78.706 10.968 78.706 10.248C78.706 9.52 78.842 8.904 79.114 8.4C79.394 7.888 79.766 7.496 80.23 7.224C80.694 6.952 81.19 6.816 81.718 6.816C82.118 6.816 82.498 6.892 82.858 7.044C83.226 7.196 83.55 7.42 83.83 7.716C84.11 8.012 84.33 8.372 84.49 8.796C84.65 9.22 84.73 9.704 84.73 10.248C84.73 10.968 84.59 11.584 84.31 12.096C84.03 12.6 83.662 12.988 83.206 13.26C82.75 13.524 82.254 13.656 81.718 13.656ZM81.718 12.744C82.094 12.744 82.422 12.64 82.702 12.432C82.99 12.224 83.214 11.932 83.374 11.556C83.534 11.18 83.614 10.744 83.614 10.248C83.614 9.744 83.534 9.304 83.374 8.928C83.214 8.552 82.99 8.26 82.702 8.052C82.422 7.844 82.094 7.74 81.718 7.74C81.342 7.74 81.01 7.844 80.722 8.052C80.442 8.26 80.222 8.552 80.062 8.928C79.91 9.304 79.834 9.744 79.834 10.248C79.834 10.744 79.91 11.18 80.062 11.556C80.222 11.932 80.442 12.224 80.722 12.432C81.01 12.64 81.342 12.744 81.718 12.744ZM88.6834 13.656C88.1394 13.656 87.6634 13.524 87.2554 13.26C86.8554 12.996 86.5434 12.612 86.3194 12.108C86.1034 11.596 85.9954 10.976 85.9954 10.248C85.9954 9.544 86.1274 8.936 86.3914 8.424C86.6554 7.912 86.9994 7.516 87.4234 7.236C87.8554 6.956 88.3194 6.816 88.8154 6.816C89.1994 6.816 89.5274 6.884 89.7994 7.02C90.0794 7.148 90.3634 7.332 90.6514 7.572L90.5914 6.456V3.948H91.6954V13.5H90.7954L90.6994 12.732H90.6634C90.4074 12.988 90.1114 13.208 89.7754 13.392C89.4394 13.568 89.0754 13.656 88.6834 13.656ZM88.9234 12.732C89.2274 12.732 89.5154 12.66 89.7874 12.516C90.0594 12.364 90.3274 12.14 90.5914 11.844V8.424C90.3194 8.176 90.0554 8 89.7994 7.896C89.5434 7.792 89.2794 7.74 89.0074 7.74C88.6634 7.74 88.3474 7.848 88.0594 8.064C87.7794 8.272 87.5514 8.564 87.3754 8.94C87.2074 9.308 87.1234 9.74 87.1234 10.236C87.1234 10.756 87.1954 11.204 87.3394 11.58C87.4834 11.956 87.6874 12.244 87.9514 12.444C88.2234 12.636 88.5474 12.732 88.9234 12.732ZM95.8128 13.656C95.1248 13.656 94.6168 13.44 94.2888 13.008C93.9688 12.576 93.8088 11.944 93.8088 11.112V6.984H94.9128V10.98C94.9128 11.58 95.0088 12.02 95.2008 12.3C95.3928 12.572 95.7048 12.708 96.1368 12.708C96.4728 12.708 96.7728 12.62 97.0368 12.444C97.3008 12.268 97.5888 11.988 97.9008 11.604V6.984H98.9928V13.5H98.0808L97.9968 12.48H97.9608C97.6568 12.832 97.3328 13.116 96.9888 13.332C96.6528 13.548 96.2608 13.656 95.8128 13.656ZM103.762 13.656C103.186 13.656 102.666 13.524 102.202 13.26C101.746 12.988 101.382 12.6 101.11 12.096C100.846 11.584 100.714 10.968 100.714 10.248C100.714 9.52 100.858 8.904 101.146 8.4C101.434 7.888 101.818 7.496 102.298 7.224C102.778 6.952 103.294 6.816 103.846 6.816C104.27 6.816 104.634 6.892 104.938 7.044C105.25 7.196 105.518 7.376 105.742 7.584L105.19 8.304C105.006 8.136 104.806 8 104.59 7.896C104.382 7.792 104.15 7.74 103.894 7.74C103.502 7.74 103.15 7.844 102.838 8.052C102.526 8.26 102.282 8.552 102.106 8.928C101.93 9.304 101.842 9.744 101.842 10.248C101.842 10.744 101.926 11.18 102.094 11.556C102.27 11.932 102.506 12.224 102.802 12.432C103.106 12.64 103.458 12.744 103.858 12.744C104.162 12.744 104.442 12.684 104.698 12.564C104.954 12.436 105.186 12.28 105.394 12.096L105.874 12.84C105.578 13.096 105.25 13.296 104.89 13.44C104.53 13.584 104.154 13.656 103.762 13.656ZM109.635 13.656C109.051 13.656 108.523 13.52 108.051 13.248C107.579 12.976 107.203 12.588 106.923 12.084C106.651 11.572 106.515 10.96 106.515 10.248C106.515 9.712 106.595 9.236 106.755 8.82C106.915 8.396 107.131 8.036 107.403 7.74C107.683 7.436 107.999 7.208 108.351 7.056C108.703 6.896 109.063 6.816 109.431 6.816C109.991 6.816 110.463 6.94 110.847 7.188C111.231 7.436 111.523 7.792 111.723 8.256C111.931 8.712 112.035 9.252 112.035 9.876C112.035 9.996 112.031 10.108 112.023 10.212C112.015 10.316 112.003 10.412 111.987 10.5H107.595C107.619 10.964 107.723 11.368 107.907 11.712C108.099 12.048 108.351 12.312 108.663 12.504C108.975 12.688 109.339 12.78 109.755 12.78C110.075 12.78 110.363 12.736 110.619 12.648C110.883 12.552 111.139 12.424 111.387 12.264L111.771 12.996C111.491 13.18 111.175 13.336 110.823 13.464C110.471 13.592 110.075 13.656 109.635 13.656ZM107.583 9.72H111.075C111.075 9.064 110.931 8.564 110.643 8.22C110.363 7.868 109.967 7.692 109.455 7.692C109.151 7.692 108.863 7.772 108.591 7.932C108.327 8.092 108.103 8.32 107.919 8.616C107.743 8.912 107.631 9.28 107.583 9.72ZM115.859 13.656C115.315 13.656 114.839 13.524 114.431 13.26C114.031 12.996 113.719 12.612 113.495 12.108C113.279 11.596 113.171 10.976 113.171 10.248C113.171 9.544 113.303 8.936 113.567 8.424C113.831 7.912 114.175 7.516 114.599 7.236C115.031 6.956 115.495 6.816 115.991 6.816C116.375 6.816 116.703 6.884 116.975 7.02C117.255 7.148 117.539 7.332 117.827 7.572L117.767 6.456V3.948H118.871V13.5H117.971L117.875 12.732H117.839C117.583 12.988 117.287 13.208 116.951 13.392C116.615 13.568 116.251 13.656 115.859 13.656ZM116.099 12.732C116.403 12.732 116.691 12.66 116.963 12.516C117.235 12.364 117.503 12.14 117.767 11.844V8.424C117.495 8.176 117.231 8 116.975 7.896C116.719 7.792 116.455 7.74 116.183 7.74C115.839 7.74 115.523 7.848 115.235 8.064C114.955 8.272 114.727 8.564 114.551 8.94C114.383 9.308 114.299 9.74 114.299 10.236C114.299 10.756 114.371 11.204 114.515 11.58C114.659 11.956 114.863 12.244 115.127 12.444C115.399 12.636 115.723 12.732 116.099 12.732ZM123.872 13.5V4.704H126.476C127.076 4.704 127.6 4.776 128.048 4.92C128.504 5.064 128.86 5.292 129.116 5.604C129.372 5.916 129.5 6.332 129.5 6.852C129.5 7.14 129.448 7.416 129.344 7.68C129.248 7.936 129.104 8.16 128.912 8.352C128.72 8.536 128.488 8.672 128.216 8.76V8.82C128.736 8.916 129.164 9.14 129.5 9.492C129.836 9.844 130.004 10.32 130.004 10.92C130.004 11.496 129.86 11.976 129.572 12.36C129.292 12.736 128.9 13.02 128.396 13.212C127.9 13.404 127.324 13.5 126.668 13.5H123.872ZM124.976 8.436H126.284C127.044 8.436 127.588 8.308 127.916 8.052C128.244 7.796 128.408 7.444 128.408 6.996C128.408 6.476 128.232 6.112 127.88 5.904C127.536 5.688 127.02 5.58 126.332 5.58H124.976V8.436ZM124.976 12.612H126.512C127.264 12.612 127.852 12.472 128.276 12.192C128.7 11.912 128.912 11.476 128.912 10.884C128.912 10.332 128.704 9.932 128.288 9.684C127.872 9.428 127.28 9.3 126.512 9.3H124.976V12.612ZM131.548 16.308C131.396 16.308 131.256 16.296 131.128 16.272C131 16.248 130.884 16.216 130.78 16.176L130.996 15.3C131.06 15.324 131.136 15.348 131.224 15.372C131.312 15.396 131.404 15.408 131.5 15.408C131.868 15.408 132.168 15.272 132.4 15C132.64 14.736 132.828 14.404 132.964 14.004L133.108 13.512L130.492 6.984H131.632L132.952 10.596C133.056 10.884 133.16 11.188 133.264 11.508C133.376 11.828 133.488 12.14 133.6 12.444H133.66C133.748 12.14 133.836 11.832 133.924 11.52C134.02 11.2 134.108 10.892 134.188 10.596L135.364 6.984H136.432L133.984 14.052C133.832 14.476 133.648 14.856 133.432 15.192C133.216 15.536 132.956 15.808 132.652 16.008C132.348 16.208 131.98 16.308 131.548 16.308Z" fill="#898989"/>
<defs>
<clipPath id="clip0_5693_95">
<rect width="56" height="40" fill="white"/>
</clipPath>
<clipPath id="clip1_5693_95">
<rect width="124" height="16" fill="white" transform="translate(64 21.5)"/>
</clipPath>
</defs>
</svg>
