<svg width="32" height="33" viewBox="0 0 32 33" fill="none" xmlns="http://www.w3.org/2000/svg">
<path d="M1.54326 16.9219C1.54326 19.7148 2.13333 22.2106 3.31348 24.4093C4.52388 26.5783 6.18818 28.3016 8.30638 29.5793C10.4246 30.8272 12.8303 31.4511 15.5234 31.4511C18.2771 31.4511 20.6979 30.8272 22.7858 29.5793C24.904 28.3016 26.5532 26.5783 27.7333 24.4093C28.9135 22.2106 29.5035 19.7148 29.5035 16.9219C29.5035 14.0992 28.9135 11.6034 27.7333 9.43441C26.5532 7.26542 24.904 5.55697 22.7858 4.30906C20.6979 3.03144 18.2771 2.39263 15.5234 2.39263C12.8303 2.39263 10.4246 3.03144 8.30638 4.30906C6.18818 5.55697 4.52388 7.26542 3.31348 9.43441C2.13333 11.6034 1.54326 14.0992 1.54326 16.9219ZM0 16.9219C0 14.6043 0.378251 12.4799 1.13475 10.5486C1.92151 8.58761 3.01088 6.89402 4.40284 5.46784C5.7948 4.04165 7.42884 2.92745 9.30497 2.12522C11.2113 1.32299 13.2842 0.921875 15.5234 0.921875C17.7929 0.921875 19.8657 1.32299 21.7418 2.12522C23.618 2.92745 25.252 4.04165 26.644 5.46784C28.0662 6.89402 29.1556 8.58761 29.9121 10.5486C30.6988 12.4799 31.0922 14.6043 31.0922 16.9219C31.0922 19.2097 30.6988 21.3341 29.9121 23.2951C29.1556 25.2561 28.0662 26.9497 26.644 28.3759C25.252 29.8021 23.618 30.9163 21.7418 31.7185C19.8657 32.5208 17.7929 32.9219 15.5234 32.9219C13.2842 32.9219 11.2113 32.5208 9.30497 31.7185C7.42884 30.9163 5.7948 29.8021 4.40284 28.3759C3.01088 26.9497 1.92151 25.2561 1.13475 23.2951C0.378251 21.3341 0 19.2097 0 16.9219ZM15.7504 19.1503H17.7021L32 32.5208H30.0028L15.7504 19.1503Z" fill="#1D2A4A"/>
</svg>
