<svg width="252" height="175" viewBox="0 0 252 175" fill="none" xmlns="http://www.w3.org/2000/svg">
<g id="logo" clip-path="url(#clip0_5630_10537)">
<path id="Vector" d="M29.7058 169.053C29.7058 169.9 29.5278 170.666 29.1854 171.336C28.843 172.006 28.3636 172.553 27.7747 173.004C27.1858 173.455 26.4873 173.797 25.693 174.029C24.8986 174.262 24.0632 174.371 23.173 174.371C21.8719 174.371 20.6941 174.221 19.6395 173.906C18.585 173.592 17.6263 173.004 16.7634 172.143L19.4204 169.49C19.8586 169.928 20.4339 170.242 21.1323 170.42C21.8308 170.598 22.5156 170.68 23.2004 170.68C24.8165 170.68 25.6245 170.174 25.6245 169.162C25.6245 168.738 25.5149 168.41 25.2958 168.164C25.063 167.932 24.6795 167.781 24.1865 167.713L22.1458 167.426C20.6393 167.207 19.5163 166.701 18.7493 165.936C17.9686 165.143 17.5852 164.021 17.5852 162.545C17.5852 161.766 17.7221 161.055 18.0097 160.412C18.2973 159.77 18.6945 159.209 19.2286 158.73C19.7628 158.252 20.4065 157.883 21.1597 157.623C21.913 157.35 22.7758 157.227 23.7482 157.227C24.9671 157.227 26.0354 157.377 26.9667 157.691C27.898 157.992 28.7197 158.512 29.4456 159.236L26.8297 161.834C26.5558 161.561 26.2819 161.369 25.9806 161.232C25.6793 161.096 25.3917 161 25.1041 160.932C24.8165 160.863 24.5563 160.836 24.296 160.836H23.6249C23.2552 160.836 22.9539 160.891 22.6936 160.973C22.4334 161.055 22.228 161.191 22.0636 161.342C21.8993 161.492 21.776 161.656 21.6939 161.834C21.6117 162.012 21.5706 162.203 21.5706 162.395C21.5706 162.504 21.598 162.627 21.6391 162.777C21.6802 162.914 21.776 163.051 21.8993 163.174C22.0089 163.283 22.1595 163.393 22.3376 163.488C22.5156 163.584 22.7621 163.652 23.0634 163.68L25.1041 163.967C26.5832 164.172 27.6926 164.637 28.4184 165.361C28.8704 165.799 29.1991 166.332 29.3908 166.947C29.5826 167.562 29.6784 168.273 29.6784 169.053H29.7058Z" fill="white"/>
<path id="Vector_2" d="M59.1515 170.803C58.8091 171.555 58.3434 172.197 57.7682 172.717C57.1793 173.25 56.5082 173.646 55.7275 173.934C54.9469 174.221 54.1251 174.357 53.2349 174.357C52.3447 174.357 51.5367 174.221 50.7697 173.934C49.9891 173.646 49.318 173.25 48.7291 172.717C48.1402 172.184 47.6882 171.555 47.3595 170.803C47.0308 170.051 46.8665 169.217 46.8665 168.301V157.363H51.0162V168.205C51.0162 168.998 51.208 169.6 51.6051 170.023C52.0023 170.447 52.5502 170.666 53.2486 170.666C53.9471 170.666 54.4949 170.447 54.9058 170.023C55.3167 169.6 55.5221 168.984 55.5221 168.205V157.363H59.6719V168.301C59.6719 169.217 59.5075 170.051 59.1651 170.803H59.1515Z" fill="white"/>
<path id="Vector_3" d="M89.1039 174.221V166.141L86.7071 170.311H84.0502L81.6534 166.141V174.221H77.5037V157.363H81.585L85.3787 164.801L89.1724 157.363H93.2537V174.221H89.1039Z" fill="white"/>
<path id="Vector_4" d="M111.387 174.221V157.363H115.536V174.221H111.387Z" fill="white"/>
<path id="Vector_5" d="M143.078 174.221L139.189 167.303L137.764 168.943V174.221H133.656V157.363H137.764V163.338L142.654 157.363H147.735L141.969 164.186L147.927 174.234H143.092L143.078 174.221Z" fill="white"/>
<path id="Vector_6" d="M173.784 174.221L173.003 171.705H167.813L166.977 174.221H162.636L168.785 157.363H171.99L178.139 174.221H173.798H173.784ZM170.483 163.748L168.963 168.246H171.908L170.483 163.748Z" fill="white"/>
<path id="Vector_7" d="M193.547 174.221V170.994L200.025 161.041H193.834V157.35H205.01V160.576L198.505 170.529H205.01V174.221H193.547Z" fill="white"/>
<path id="Vector_8" d="M222.13 174.221V157.363H233.607V161.055H226.28V163.871H232.539V167.562H226.28V170.529H233.607V174.221H222.13Z" fill="white"/>
<path id="Vector_9" d="M118.125 40.9473V43.2168C118.125 44.6523 117.166 45.7324 115.002 45.7324C110.565 45.7324 103.731 42.3828 96.2941 37.3516C95.938 39.0332 93.5413 39.8672 89.3367 39.8672H55.8783C52.3996 39.8672 50.2494 39.3887 49.0441 38.5547C41.8539 44.543 34.8965 48.6172 30.0893 48.6172C27.9254 48.6172 27.2133 47.4141 27.2133 46.1016C27.09 42.875 26.8572 41.1934 24.2139 35.2051C23.8578 72.6797 18.8178 95.1836 16.065 102.607C16.1883 103.209 16.6676 104.398 16.6676 105.123C16.6676 109.074 14.983 112.068 10.3128 112.068C6.35478 112.068 1.79413 108.117 1.79413 101.65C1.79413 97.5762 2.75283 94.582 5.87543 90.6309L8.62826 92.5449C13.1889 88.4707 18.4617 69.7949 20.9817 48.248C20.3791 49.8066 18.8178 50.9961 16.1883 50.9961C12.5863 50.9961 10.1896 45.2539 1.91739 41.8906L0 41.6582C0.602609 38.541 1.20522 36.75 1.91739 35.6699C7.08065 24.1719 13.7915 15.3125 13.7915 13.5215C13.7915 12.6875 7.31348 7.65625 4.0813 7.65625H2.76652C4.56065 0.123046 5.87543 0 8.75152 0C12.9424 0 28.2952 8.25781 28.2952 14.7246C28.2952 17.5957 27.2133 19.6328 24.1043 19.7559C24.2276 24.3086 24.2276 28.6152 24.2276 32.8125C26.9804 37.7207 28.1857 38.3223 28.5417 38.3223C31.6643 38.3223 37.5398 34.7266 43.8946 29.5859L36.8139 22.2852C36.2113 21.9297 35.4991 21.8066 34.8965 21.4512C32.1437 19.8926 31.0617 17.9785 31.0617 16.2969C31.0617 14.5059 32.8559 13.0703 36.1017 13.0703C38.2657 13.0703 40.8952 13.6719 44.2643 15.1074L43.6617 17.623L50.0165 24.2129C54.5772 20.0293 58.768 15.3535 62.0139 11.0469H47.4965C41.265 11.0469 39.827 9.84375 39.827 8.4082C39.827 5.29102 44.1411 3.02148 48.9346 0.505859L50.1398 2.66602H71.2448L71.9707 0.628906C79.5307 2.1875 82.7628 6.13867 82.7628 9.61133C82.7628 10.6914 81.8041 11.7715 80.8454 12.4824C82.0507 13.7949 83.3654 15.1211 84.6802 16.4336C88.6383 12.8379 91.035 9.73437 91.6376 8.05273L89.3641 6.01563C91.4048 3.74609 94.2809 2.78906 97.513 2.78906C101.827 2.78906 104.114 4.94922 104.114 7.46484C104.114 9.50195 102.553 10.6914 100.512 11.5391C98.7183 13.5762 94.0343 18.3613 90.4324 21.3555C92.3498 23.0371 94.5137 24.582 96.5544 26.0313C100.156 22.6816 102.553 19.8105 103.032 18.1289L100.636 16.2148C102.8 13.8223 105.676 12.7422 108.798 12.7422C113.112 12.7422 115.632 15.2578 115.632 17.5273C115.632 19.6875 113.948 20.877 111.921 21.6016C110.236 23.3926 106.525 27.3438 103.046 30.3379C108.689 33.8105 113.715 35.9707 116.125 35.9707C116.605 35.9707 117.084 35.6152 117.44 35.0137H118.878C118.276 37.0508 118.152 39.1973 118.152 41.002L118.125 40.9473ZM22.6663 19.6328C21.3515 19.0312 19.3109 16.8848 18.585 16.8848C16.4211 16.8848 11.025 20.8359 3.95804 34.4805C4.31413 34.4805 4.79348 34.3574 5.27283 34.3574C8.75152 34.3574 20.6257 41.1797 21.2283 46.334C22.0637 38.3086 22.6663 29.9277 22.6663 21.916V19.6465V19.6328ZM111.537 111.699C110.099 111.699 107.456 110.742 105.662 109.908H31.8972C29.9798 110.865 27.3365 111.699 25.8985 111.699C21.4611 111.699 20.3791 109.43 20.3791 106.791C20.3791 104.398 23.8578 100.803 31.5274 97.6855L33.3215 100.557H74.0935C79.7361 96.6055 87.7617 90.1387 91.6102 85.9551L87.4194 83.7949C78.7911 85.709 62.4796 90.0156 56.0015 92.7773C56.1248 93.0098 56.1248 93.3789 56.1248 93.6113C56.1248 97.084 53.2487 98.9981 50.0028 98.9981C44.4835 98.9981 43.8809 89.6602 38.9641 85.3535L36.9235 84.5195C39.0874 81.6484 40.8815 79.6113 44.4835 79.6113C48.0854 79.6113 50.6054 82.127 55.0428 89.9063C61.2743 88.1152 88.2685 81.1699 91.5007 79.0098C106.607 83.6855 108.168 85.1211 108.168 86.5566C108.168 88.1152 105.169 88.9492 100.375 90.1523C97.6226 92.9004 91.8567 96.8516 86.5839 100.57H104.21L106.128 97.6992C113.318 100.447 116.687 104.289 116.687 106.805C116.687 110.031 114.893 111.713 111.524 111.713L111.537 111.699ZM101.225 78.1758C100.499 78.1758 99.54 77.9297 97.8691 76.9727H43.5385C41.9772 77.9297 40.7857 78.1758 40.0598 78.1758C36.8276 78.1758 33.3489 74.7031 33.3489 70.5195C33.3489 69.207 34.4309 68.25 35.2663 67.5254V58.0645C34.4309 57.2305 33.705 55.7949 33.705 54.8379C33.705 51.3652 37.1837 48.3711 42.5798 45.5L43.5385 47.6602H95.8285L96.6639 45.5C105.415 48.0156 107.935 51.1191 107.935 54.9609C107.935 56.2734 107.1 57.2305 106.141 58.0781V67.416C107.1 68.1406 108.059 69.207 108.059 70.6426C108.059 74.9492 104.224 78.1895 101.225 78.1895V78.1758ZM96.4311 56.6289H44.867V68.0039H96.4311V56.6289ZM71.4913 15.3262C68.0126 19.7559 63.9313 24.4316 59.4939 28.9707L60.4526 31.0078H84.6802L85.6389 29.2168C80.5989 24.7871 75.6822 20.002 71.4913 15.3262Z" fill="white"/>
<path id="Vector_10" d="M158.856 28.8066C174.332 28.8066 195.793 26.5371 205.27 24.623L202.394 21.0273L209.708 19.2363C219.418 27.7402 221.582 30.3652 221.582 31.9238C221.582 33.2363 220.377 34.4395 217.501 34.4395C215.816 34.4395 213.187 33.6055 211.502 32.7578C206.339 33.8379 199.751 34.7949 192.67 35.5059V43.6543H204.777L205.613 41.4941C214.008 44.0098 216.528 46.7578 216.528 50.3535C216.528 51.4336 215.802 52.3906 214.734 53.1016V72.502C215.693 73.1035 216.652 73.9375 216.652 75.25C216.652 79.3242 212.94 82.4277 210.05 82.4277C209.324 82.4277 208.366 82.1953 206.695 81.2246H192.657V97.3848C197.93 96.6602 202.846 95.9492 206.695 95.2246C205.859 93.3106 205.01 91.1504 203.942 88.7578L201.669 85.8867C205.75 84.6836 208.379 83.9727 210.187 83.9727C212.351 84.2051 213.187 85.1758 214.022 87.1992C219.185 100.488 221.582 104.193 223.143 104.193C223.499 104.193 223.869 103.947 224.225 103.592H225.663C225.184 105.629 225.184 107.064 225.184 108.145V110.182C225.184 113.176 223.267 115.213 220.267 115.213C217.268 115.213 215.227 113.654 210.557 103.961C201.326 105.998 172.784 109.826 163.06 110.906C161.622 114.256 160.417 116.17 159.102 116.17C157.062 116.17 155.98 114.379 151.433 97.9727L157.308 94.377L160.664 100.967H161.143C164.499 100.967 173.62 99.8867 183.33 98.6973V81.2109H168.936C167.251 82.0449 166.293 82.291 165.58 82.291C162.581 82.291 159.102 79.0645 159.102 75.1133C159.102 73.8008 160.061 73.0762 160.897 72.3652V53.2109C160.061 52.3769 159.459 51.1738 159.459 50.2168C159.459 46.9902 162.937 44.1055 167.977 41.4805L168.936 43.6406H183.33V36.4629C174.332 37.1875 165.704 37.543 160.184 37.543C158.02 37.543 156.582 37.1875 156.582 34.6719C156.582 34.1934 156.706 33.3594 156.706 32.2793M243.112 117.523C232.319 117.523 227.526 105.793 227.403 16.4746H151.132C143.695 16.4746 142.01 15.1621 142.01 13.3574C142.01 10.0078 146.092 6.89062 154.72 3.89648L156.158 6.53516H224.28L226.321 3.78711C236.031 6.17969 239.989 10.1309 239.989 14.2051C239.989 15.5176 238.784 16.9531 237.346 17.9238C237.346 25.2246 237.346 31.9238 237.469 38.0352C242.262 54.5508 251.493 91.0684 251.493 103.277C251.493 113.449 248.261 117.523 243.098 117.523H243.112ZM185.782 52.6367H172.825V72.1465H185.782V52.6367ZM207.722 52.6367H195.136V72.1465H207.722V52.6367ZM237.469 42.5742C238.304 95.1289 241.55 103.756 243.591 103.756C245.152 103.756 246.234 100.639 246.234 95.375C246.234 86.3926 243.591 70 237.483 42.5742H237.469Z" fill="white"/>
<path id="Vector_11" d="M152.214 28.916C159.65 75.25 134.012 134.627 85.639 145.797C81.544 146.74 79.2979 144.443 78.1064 139.303C74.162 122.268 79.7635 108.199 138.477 77.916C143.407 62.0293 144.393 44.4746 140.463 27.5625L135.929 24.623L141.586 17.1719C141.586 17.1719 150.419 17.7324 152.214 28.9023V28.916ZM82.982 131.182C83.3107 132.576 84.2009 133.232 85.7211 132.891C110.14 127.244 129.013 106.176 137.696 80.459C88.4192 106.34 80.4757 120.354 82.982 131.195V131.182Z" fill="white"/>
</g>
<defs>
<clipPath id="clip0_5630_10537">
<rect width="252" height="175" fill="white"/>
</clipPath>
</defs>
</svg>
