<svg width="105" height="74" viewBox="0 0 105 74" fill="none" xmlns="http://www.w3.org/2000/svg">
<g id="logo" clip-path="url(#clip0_5696_1241)">
<path id="Vector" d="M12.3775 71.4802C12.3775 71.8338 12.3033 72.1532 12.1606 72.4326C12.018 72.7121 11.8182 72.9402 11.5728 73.1284C11.3275 73.3166 11.0364 73.4592 10.7055 73.5561C10.3745 73.6531 10.0264 73.6987 9.65545 73.6987C9.11334 73.6987 8.62257 73.636 8.18317 73.5048C7.74377 73.3736 7.34431 73.1284 6.9848 72.7691L8.09187 71.6627C8.27448 71.8452 8.51415 71.9764 8.80518 72.0505C9.09622 72.1247 9.38154 72.1589 9.66687 72.1589C10.3402 72.1589 10.6769 71.9479 10.6769 71.5258C10.6769 71.349 10.6313 71.2122 10.54 71.1095C10.443 71.0125 10.2832 70.9498 10.0777 70.9213L9.22747 70.8015C8.59975 70.7103 8.13181 70.4993 7.81225 70.1799C7.48698 69.8491 7.32719 69.3814 7.32719 68.7655C7.32719 68.4404 7.38426 68.1439 7.5041 67.8758C7.62393 67.6078 7.78942 67.3739 8.01198 67.1743C8.23453 66.9747 8.50274 66.8207 8.8166 66.7124C9.13045 66.5983 9.48997 66.547 9.89513 66.547C10.403 66.547 10.8481 66.6097 11.2362 66.7409C11.6242 66.8664 11.9666 67.0831 12.269 67.3854L11.1791 68.469C11.065 68.3549 10.9508 68.275 10.8253 68.218C10.6997 68.161 10.5799 68.1211 10.4601 68.0925C10.3402 68.064 10.2318 68.0526 10.1234 68.0526H9.84377C9.68969 68.0526 9.56415 68.0754 9.45573 68.1097C9.3473 68.1439 9.2617 68.2009 9.19323 68.2636C9.12475 68.3264 9.07339 68.3948 9.03915 68.469C9.00491 68.5431 8.98779 68.6229 8.98779 68.7028C8.98779 68.7484 8.9992 68.7997 9.01632 68.8625C9.03344 68.9195 9.07339 68.9765 9.12475 69.0279C9.1704 69.0735 9.23317 69.1191 9.30736 69.159C9.38154 69.199 9.48426 69.2275 9.6098 69.2389L10.4601 69.3586C11.0764 69.4442 11.5386 69.6381 11.8411 69.9404C12.0294 70.1229 12.1663 70.3453 12.2462 70.6019C12.3261 70.8586 12.3661 71.1551 12.3661 71.4802H12.3775Z" fill="#898989"/>
<path id="Vector_2" d="M24.6465 72.2102C24.5038 72.5238 24.3098 72.7919 24.0701 73.0086C23.8247 73.231 23.5451 73.3964 23.2198 73.5162C22.8946 73.636 22.5522 73.693 22.1812 73.693C21.8103 73.693 21.4736 73.636 21.1541 73.5162C20.8288 73.3964 20.5492 73.231 20.3038 73.0086C20.0584 72.7862 19.8701 72.5238 19.7331 72.2102C19.5962 71.8965 19.5277 71.5486 19.5277 71.1665V66.604H21.2568V71.1266C21.2568 71.4574 21.3367 71.7083 21.5022 71.8851C21.6677 72.0619 21.8959 72.1531 22.1869 72.1531C22.478 72.1531 22.7062 72.0619 22.8774 71.8851C23.0486 71.7083 23.1342 71.4517 23.1342 71.1266V66.604H24.8633V71.1665C24.8633 71.5486 24.7948 71.8965 24.6522 72.2102H24.6465Z" fill="#898989"/>
<path id="Vector_3" d="M37.1266 73.636V70.2654L36.128 72.0049H35.0209L34.0223 70.2654V73.636H32.2932V66.604H33.9938L35.5745 69.7065L37.1552 66.604H38.8557V73.636H37.1266Z" fill="#898989"/>
<path id="Vector_4" d="M46.4111 73.636V66.604H48.1402V73.636H46.4111Z" fill="#898989"/>
<path id="Vector_5" d="M59.616 73.636L57.9954 70.7502L57.4019 71.4346V73.636H55.6899V66.604H57.4019V69.0963L59.4391 66.604H61.5562L59.1538 69.4499L61.6361 73.6417H59.6217L59.616 73.636Z" fill="#898989"/>
<path id="Vector_6" d="M72.4101 73.636L72.0848 72.5866H69.922L69.5739 73.636H67.765L70.3272 66.604H71.6625L74.2247 73.636H72.4158H72.4101ZM71.0348 69.2674L70.4014 71.1437H71.6283L71.0348 69.2674Z" fill="#898989"/>
<path id="Vector_7" d="M80.6446 73.6359V72.29L83.3438 68.1381H80.7644V66.5983H85.421V67.9442L82.7104 72.0961H85.421V73.6359H80.6446Z" fill="#898989"/>
<path id="Vector_8" d="M92.5541 73.636V66.604H97.3361V68.1438H94.2832V69.3187H96.891V70.8585H94.2832V72.0961H97.3361V73.636H92.5541Z" fill="#898989"/>
<path id="Vector_9" d="M49.2188 18.0419V18.9886C49.2188 19.5875 48.8193 20.038 47.9177 20.038C46.0688 20.038 43.2212 18.6407 40.1226 16.542C39.9742 17.2435 38.9755 17.5914 37.2236 17.5914H23.2826C21.8332 17.5914 20.9372 17.3918 20.4351 17.0439C17.4391 19.5418 14.5402 21.2414 12.5372 21.2414C11.6356 21.2414 11.3389 20.7395 11.3389 20.192C11.2875 18.8461 11.1905 18.1446 10.0891 15.6466C9.94076 31.2789 7.84076 40.6662 6.69375 43.763C6.74511 44.014 6.94484 44.5101 6.94484 44.8124C6.94484 46.4606 6.24294 47.7096 4.29701 47.7096C2.64783 47.7096 0.747554 46.0614 0.747554 43.3638C0.747554 41.6643 1.14701 40.4153 2.4481 38.7671L3.59511 39.5655C5.49538 37.866 7.69239 30.0755 8.74239 21.0874C8.4913 21.7375 7.84076 22.2337 6.74511 22.2337C5.24429 22.2337 4.24565 19.8384 0.798913 18.4354L0 18.3385C0.251087 17.0382 0.502174 16.2911 0.798913 15.8405C2.95027 11.0442 5.74647 7.34856 5.74647 6.60145C5.74647 6.25356 3.04728 4.15481 1.70054 4.15481H1.15272C1.90027 1.01239 2.4481 0.96106 3.64647 0.96106C5.39266 0.96106 11.7897 4.40575 11.7897 7.10333C11.7897 8.30098 11.3389 9.15075 10.0435 9.20208C10.0948 11.1012 10.0948 12.8977 10.0948 14.6486C11.2418 16.696 11.744 16.9469 11.8924 16.9469C13.1935 16.9469 15.6416 15.447 18.2894 13.3026L15.3391 10.2572C15.088 10.1089 14.7913 10.0575 14.5402 9.90926C13.3932 9.25911 12.9424 8.46067 12.9424 7.75918C12.9424 7.01208 13.6899 6.41325 15.0424 6.41325C15.944 6.41325 17.0397 6.66418 18.4435 7.26301L18.1924 8.31239L20.8402 11.0613C22.7405 9.31614 24.4867 7.36567 25.8391 5.56918H19.7902C17.1938 5.56918 16.5946 5.06731 16.5946 4.46848C16.5946 3.16817 18.3921 2.22145 20.3894 1.17208L20.8916 2.07317H29.6853L29.9878 1.2234C33.1378 1.87356 34.4845 3.52176 34.4845 4.97036C34.4845 5.4209 34.0851 5.87145 33.6856 6.16801C34.1878 6.71551 34.7356 7.26872 35.2834 7.81622C36.9326 6.31629 37.9313 5.02168 38.1823 4.3202L37.2351 3.47043C38.0853 2.52372 39.2837 2.1245 40.6304 2.1245C42.428 2.1245 43.381 3.02559 43.381 4.07497C43.381 4.92473 42.7304 5.4209 41.8802 5.7745C41.1326 6.62426 39.181 8.62036 37.6802 9.86934C38.4791 10.5708 39.3807 11.2153 40.231 11.8198C41.7318 10.4225 42.7304 9.22489 42.9302 8.5234L41.9315 7.72497C42.8332 6.72692 44.0315 6.27637 45.3326 6.27637C47.1302 6.27637 48.1802 7.32575 48.1802 8.27247C48.1802 9.17356 47.4783 9.66973 46.6337 9.972C45.9318 10.7191 44.3853 12.3673 42.9359 13.6163C45.287 15.0649 47.3813 15.966 48.3856 15.966C48.5853 15.966 48.7851 15.8177 48.9334 15.5668H49.5326C49.2815 16.4165 49.2302 17.3119 49.2302 18.0647L49.2188 18.0419ZM9.44429 9.15075C8.89647 8.89981 8.0462 8.00442 7.74375 8.00442C6.84212 8.00442 4.59375 9.65262 1.64918 15.3443C1.79755 15.3443 1.99728 15.293 2.19701 15.293C3.64647 15.293 8.59402 18.1389 8.84511 20.2889C9.19321 16.9412 9.44429 13.4452 9.44429 10.1032V9.15645V9.15075ZM46.4739 47.5556C45.8747 47.5556 44.7734 47.1564 44.0258 46.8085H13.2905C12.4916 47.2077 11.3902 47.5556 10.791 47.5556C8.94212 47.5556 8.4913 46.6089 8.4913 45.5082C8.4913 44.5101 9.94076 43.0102 13.1364 41.7099L13.884 42.9075H30.8723C33.2234 41.2593 36.5674 38.5618 38.1709 36.8166L36.4247 35.9155C32.8296 36.714 26.0332 38.5104 23.334 39.6625C23.3853 39.7594 23.3853 39.9134 23.3853 40.0104C23.3853 41.459 22.187 42.2574 20.8345 42.2574C18.5348 42.2574 18.2837 38.3622 16.2351 36.5657L15.3848 36.2178C16.2864 35.0201 17.034 34.1704 18.5348 34.1704C20.0356 34.1704 21.0856 35.2197 22.9345 38.4648C25.531 37.7177 36.7785 34.8205 38.1253 33.9194C44.4196 35.8699 45.0701 36.4687 45.0701 37.0675C45.0701 37.7177 43.8204 38.0656 41.8231 38.5675C40.6761 39.7138 38.2736 41.362 36.0766 42.9132H43.4209L44.2198 41.7156C47.2158 42.8619 48.6196 44.4645 48.6196 45.5139C48.6196 46.8598 47.872 47.5613 46.4682 47.5613L46.4739 47.5556ZM42.1769 33.5715C41.8745 33.5715 41.475 33.4689 40.7788 33.0697H18.141C17.4905 33.4689 16.994 33.5715 16.6916 33.5715C15.3448 33.5715 13.8954 32.1229 13.8954 30.3778C13.8954 29.8303 14.3462 29.4311 14.6943 29.1288V25.1822C14.3462 24.8343 14.0438 24.2355 14.0438 23.8363C14.0438 22.3877 15.4932 21.1387 17.7416 19.9411L18.141 20.8422H39.9285L40.2766 19.9411C43.9231 20.9904 44.9731 22.285 44.9731 23.8876C44.9731 24.4351 44.625 24.8343 44.2255 25.1879V29.0832C44.625 29.3854 45.0245 29.8303 45.0245 30.4291C45.0245 32.2256 43.4266 33.5772 42.1769 33.5772V33.5715ZM40.1796 24.5834H18.6946V29.3284H40.1796V24.5834ZM29.788 7.35426C28.3386 9.20208 26.638 11.1525 24.7891 13.046L25.1886 13.8957H35.2834L35.6829 13.1486C33.5829 11.3008 31.5342 9.30473 29.788 7.35426Z" fill="#898989"/>
<path id="Vector_10" d="M66.1899 12.9775C72.6383 12.9775 81.5804 12.0308 85.5293 11.2323L84.331 9.73241L87.3782 8.9853C91.4242 12.5326 92.3258 13.6276 92.3258 14.2778C92.3258 14.8253 91.8236 15.3272 90.6252 15.3272C89.9233 15.3272 88.8277 14.9793 88.1258 14.6257C85.9744 15.0762 83.2296 15.4755 80.2793 15.772V19.1711H85.3239L85.672 18.27C89.1701 19.3194 90.2201 20.4657 90.2201 21.9656C90.2201 22.4162 89.9176 22.8154 89.4725 23.1119V31.2047C89.872 31.4556 90.2714 31.8035 90.2714 32.351C90.2714 34.0505 88.725 35.3451 87.5209 35.3451C87.2184 35.3451 86.819 35.2482 86.1228 34.8433H80.2736V41.5844C82.4706 41.2821 84.5193 40.9855 86.1228 40.6833C85.7747 39.8848 85.4209 38.9837 84.9758 37.9857L84.0285 36.788C85.729 36.2862 86.8247 35.9896 87.578 35.9896C88.4796 36.0866 88.8277 36.4915 89.1758 37.3355C91.3271 42.879 92.3258 44.4245 92.9763 44.4245C93.1247 44.4245 93.2788 44.3219 93.4271 44.1736H94.0263C93.8266 45.0233 93.8266 45.6222 93.8266 46.0727V46.9225C93.8266 48.1715 93.0277 49.0212 91.778 49.0212C90.5282 49.0212 89.678 48.3711 87.732 44.3276C83.8858 45.1773 71.9935 46.7742 67.9418 47.2248C67.3426 48.622 66.8405 49.4205 66.2926 49.4205C65.4424 49.4205 64.9915 48.6734 63.097 41.8296L65.5451 40.3297L66.9432 43.0786H67.1429C68.541 43.0786 72.3415 42.628 76.3875 42.1319V34.8376H70.3899C69.688 35.1855 69.2886 35.2881 68.9918 35.2881C67.7421 35.2881 66.2926 33.9422 66.2926 32.294C66.2926 31.7465 66.6921 31.4442 67.0402 31.1476V23.1576C66.6921 22.8097 66.441 22.3078 66.441 21.9086C66.441 20.5626 67.8905 19.3593 69.9905 18.2643L70.3899 19.1654H76.3875V16.1712C72.6383 16.4735 69.0432 16.6218 66.7435 16.6218C65.8418 16.6218 65.2426 16.4735 65.2426 15.4241C65.2426 15.2245 65.294 14.8766 65.294 14.4261M101.296 49.9851C96.7997 49.9851 94.8024 45.0918 94.7511 7.83327H62.9714C59.8728 7.83327 59.1709 7.28577 59.1709 6.53296C59.1709 5.13569 60.8714 3.83538 64.4665 2.5864L65.0657 3.6871H93.45L94.3002 2.54077C98.3462 3.53882 99.9954 5.18702 99.9954 6.88655C99.9954 7.43405 99.4932 8.03288 98.894 8.4378C98.894 11.4833 98.894 14.2778 98.9454 16.8271C100.943 23.7165 104.789 38.9495 104.789 44.0424C104.789 48.2855 103.442 49.9851 101.291 49.9851H101.296ZM77.4089 22.918H72.0106V31.0564H77.4089V22.918ZM86.5508 22.918H81.3065V31.0564H86.5508V22.918ZM98.9454 18.7205C99.2935 40.6433 100.646 44.242 101.496 44.242C102.147 44.242 102.598 42.9417 102.598 40.746C102.598 36.9991 101.496 30.161 98.9511 18.7205H98.9454Z" fill="#898989"/>
<path id="Vector_11" d="M63.4223 13.0231C66.5209 32.351 55.8383 57.1197 35.6829 61.7792C33.9766 62.1727 33.0408 61.2145 32.5443 59.0702C30.9008 51.9641 33.2348 46.0956 57.6986 33.4631C59.753 26.8361 60.1639 19.5133 58.5261 12.4585L56.6372 11.2323L58.994 8.12415C58.994 8.12415 62.6747 8.35797 63.4223 13.0174V13.0231ZM34.5758 55.6825C34.7128 56.2642 35.0837 56.538 35.7171 56.3954C45.8919 54.04 53.7554 45.2515 57.3734 34.5239C36.8413 45.3199 33.5315 51.1656 34.5758 55.6882V55.6825Z" fill="#898989"/>
</g>
<defs>
<clipPath id="clip0_5696_1241">
<rect width="105" height="73" fill="white" transform="translate(0 0.96106)"/>
</clipPath>
</defs>
</svg>
