<svg width="24" height="24" viewBox="0 0 24 24" fill="none" xmlns="http://www.w3.org/2000/svg">
<mask id="mask0_5693_135" style="mask-type:alpha" maskUnits="userSpaceOnUse" x="0" y="0" width="24" height="24">
<rect width="24" height="24" fill="#D9D9D9"/>
</mask>
<g mask="url(#mask0_5693_135)">
<g clip-path="url(#clip0_5693_135)">
<path d="M17.4908 10.6273C17.5125 10.8323 17.6775 11 17.8837 11C18.0899 11 18.2588 10.8323 18.2409 10.6269C18.062 8.57629 16.4229 6.93802 14.3731 6.75914C14.1677 6.74122 14 6.91008 14 7.11627C14 7.32245 14.1677 7.48751 14.3727 7.50924C16.0116 7.6829 17.3171 8.98841 17.4908 10.6273Z" fill="#7A8096"/>
<path d="M20.3711 10.6266C20.383 10.8325 20.549 11 20.7552 11C20.9614 11 21.1296 10.8327 21.1189 10.6268C20.9305 6.9925 18.0075 4.06949 14.3732 3.88111C14.1673 3.87044 14 4.03861 14 4.24479C14 4.45098 14.1675 4.61699 14.3734 4.62892C17.5957 4.81571 20.1843 7.40433 20.3711 10.6266Z" fill="#7A8096"/>
<path d="M14.3738 1.00689C14.1678 0.999283 14 1.16715 14 1.37333C14 1.57952 14.1677 1.74589 14.3737 1.75411C19.1791 1.94593 23.0541 5.81996 23.2459 10.6263C23.2541 10.8323 23.4205 11 23.6267 11C23.8329 11 24.0007 10.8322 23.9931 10.6262C23.8004 5.40909 19.5909 1.19963 14.3738 1.00689Z" fill="#7A8096"/>
</g>
<path fill-rule="evenodd" clip-rule="evenodd" d="M4.13435 5.05118C4.41953 4.99619 4.60779 4.72149 4.55545 4.43507C4.50279 4.14695 4.2266 3.95607 3.93856 4.00874C3.41496 4.10448 3.17553 4.51515 3.08025 4.83633C2.98831 5.14625 2.99113 5.47509 3.01205 5.69516C3.52587 14.9247 10.644 21.4858 19.3783 21.9991L19.3939 22H19.4094C19.6288 22 19.9554 21.9619 20.245 21.8598C20.389 21.8091 20.56 21.7301 20.7039 21.6029C20.8559 21.4684 21 21.2563 21 20.9711C21 20.6782 20.7626 20.4408 20.4698 20.4408C20.2248 20.4408 20.0185 20.6071 19.9578 20.833C19.9403 20.8413 19.9186 20.8503 19.8927 20.8594C19.7439 20.9118 19.5494 20.9374 19.4234 20.9392C11.2031 20.4481 4.54735 14.2886 4.07021 5.62559L4.06956 5.61378L4.06838 5.602C4.05326 5.45075 4.05795 5.26909 4.09682 5.13807C4.1117 5.08791 4.12673 5.06197 4.13435 5.05118Z" fill="#7A8096"/>
<path fill-rule="evenodd" clip-rule="evenodd" d="M8.25542 11.0654C8.49718 10.9283 8.80402 11.0137 8.94076 11.2561C10.0745 13.2656 11.7354 14.9256 13.7433 16.0561C13.9854 16.1925 14.0715 16.4998 13.9355 16.7426C13.7995 16.9854 13.4929 17.0717 13.2507 16.9353C11.0827 15.7147 9.28939 13.9223 8.06526 11.7525C7.92852 11.5101 8.01365 11.2025 8.25542 11.0654Z" fill="#7A8096"/>
<path fill-rule="evenodd" clip-rule="evenodd" d="M15.1879 14.1527C15.3196 14.0262 15.5088 13.9734 15.6898 14.0128L20.5756 15.076C20.8684 15.1397 21.0525 15.4213 20.9867 15.7049C20.9209 15.9885 20.6301 16.1667 20.3373 16.103L15.742 15.103L13.9262 16.8473C13.7131 17.0521 13.369 17.0507 13.1576 16.8443C12.9463 16.638 12.9476 16.3047 13.1607 16.1L15.1879 14.1527Z" fill="#7A8096"/>
<path fill-rule="evenodd" clip-rule="evenodd" d="M9.28309 4.01328C9.5687 3.94775 9.85225 4.13106 9.91643 4.42272L10.9871 9.28868C11.0262 9.46641 10.9751 9.65231 10.8512 9.78334L8.91131 11.8347C8.70796 12.0498 8.37241 12.0557 8.16184 11.8481C7.95127 11.6404 7.94541 11.2978 8.14876 11.0827L9.89017 9.24127L8.88215 4.66004C8.81797 4.36838 8.99748 4.07882 9.28309 4.01328Z" fill="#7A8096"/>
<path fill-rule="evenodd" clip-rule="evenodd" d="M4 4.5C4 4.22386 4.22386 4 4.5 4H9.5C9.77614 4 10 4.22386 10 4.5C10 4.77614 9.77614 5 9.5 5H4.5C4.22386 5 4 4.77614 4 4.5Z" fill="#7A8096"/>
<path fill-rule="evenodd" clip-rule="evenodd" d="M20.5 15C20.7761 15 21 15.2239 21 15.5V20.5C21 20.7761 20.7761 21 20.5 21C20.2239 21 20 20.7761 20 20.5V15.5C20 15.2239 20.2239 15 20.5 15Z" fill="#7A8096"/>
</g>
<defs>
<clipPath id="clip0_5693_135">
<rect width="10" height="10" fill="white" transform="translate(14 1)"/>
</clipPath>
</defs>
</svg>
